<svg xmlns="http://www.w3.org/2000/svg" xmlns:xlink="http://www.w3.org/1999/xlink" viewBox="0 0 359.69 255.02"><defs><style>.cls-1{fill:#fff;}.cls-2{fill:#ff6d00;}.cls-3{fill:url(#radial-gradient);}.cls-4{fill:url(#radial-gradient-2);}.cls-5{fill:url(#radial-gradient-3);}</style><radialGradient id="radial-gradient" cx="247.59" cy="121.6" r="156.25" gradientUnits="userSpaceOnUse"><stop offset="0" stop-color="#fff"/><stop offset="1" stop-color="#349dc4"/></radialGradient><radialGradient id="radial-gradient-2" cx="247.59" cy="121.6" r="156.25" xlink:href="#radial-gradient"/><radialGradient id="radial-gradient-3" cx="247.59" cy="121.6" r="156.25" xlink:href="#radial-gradient"/></defs><title>AG Grenade Only Transparent</title><g id="_Grenade_" data-name="[Grenade]"><path class="cls-1" d="M188.74,148V52.31c0-42.47,123.31-42.47,123.31.66v94.74C312.05,191.67,188.74,190.51,188.74,148Z" transform="translate(-70.55 -20.54)"/><path class="cls-2" d="M197.86,50c0,13.74,23.52,24.87,52.53,24.87S302.93,63.71,302.93,50,279.41,25.1,250.39,25.1,197.86,36.24,197.86,50Z" transform="translate(-70.55 -20.54)"/></g><g id="_waves_" data-name="[waves]"><path class="cls-3" d="M430.24,178.66c-4,83.62-115.7,96.9-177.86,96.9S70.55,263.61,70.55,170.7c43.8,87.6,155.28,83.62,179.84,83.62S403.69,249,430.24,178.66Z" transform="translate(-70.55 -20.54)"/><path class="cls-4" d="M384,175.42c-3,49.61-86,57.48-132.17,57.48s-135.12-7.09-135.12-62.2c32.55,52,115.39,49.6,133.64,49.6S364.3,217.15,384,175.42Z" transform="translate(-70.55 -20.54)"/><path class="cls-5" d="M334.41,165.77c-1.86,31.06-54.05,36-83.09,36s-84.95-4.44-84.95-38.95c20.47,32.54,72.55,31.06,84,31.06S322,191.9,334.41,165.77Z" transform="translate(-70.55 -20.54)"/></g></svg>